<mxfile host="app.diagrams.net" agent="Mozilla/5.0 (Windows NT 10.0; Win64; x64) AppleWebKit/537.36 (KHTML, like Gecko) Chrome/138.0.0.0 Safari/537.36" version="28.0.7">
  <diagram name="Página-1" id="EyfM7gKQ8eKXRMJU3dzM">
    <mxGraphModel dx="1846" dy="556" grid="1" gridSize="10" guides="1" tooltips="1" connect="1" arrows="1" fold="1" page="1" pageScale="1" pageWidth="827" pageHeight="1169" background="none" math="0" shadow="0">
      <root>
        <mxCell id="0" />
        <mxCell id="1" parent="0" />
        <mxCell id="F8IjO_xPWt07QARBXUnK-1" value="PostgresDB&amp;nbsp;" style="shape=image;html=1;verticalAlign=top;verticalLabelPosition=bottom;labelBackgroundColor=#ffffff;imageAspect=0;aspect=fixed;image=https://cdn2.iconfinder.com/data/icons/font-awesome/1792/database-128.png" parent="1" vertex="1">
          <mxGeometry x="-88" y="370" width="88" height="88" as="geometry" />
        </mxCell>
        <mxCell id="F8IjO_xPWt07QARBXUnK-19" value="" style="edgeStyle=orthogonalEdgeStyle;rounded=0;orthogonalLoop=1;jettySize=auto;html=1;" parent="1" source="F8IjO_xPWt07QARBXUnK-14" target="F8IjO_xPWt07QARBXUnK-18" edge="1">
          <mxGeometry relative="1" as="geometry">
            <Array as="points">
              <mxPoint x="-95" y="250" />
            </Array>
          </mxGeometry>
        </mxCell>
        <mxCell id="F8IjO_xPWt07QARBXUnK-14" value="&lt;font style=&quot;font-size: 18px;&quot;&gt;API&lt;/font&gt;" style="text;html=1;align=center;verticalAlign=middle;resizable=1;points=[];autosize=1;strokeColor=none;fillColor=none;movable=1;rotatable=1;deletable=1;editable=1;locked=0;connectable=1;" parent="1" vertex="1">
          <mxGeometry x="-120" y="130" width="50" height="40" as="geometry" />
        </mxCell>
        <mxCell id="F8IjO_xPWt07QARBXUnK-15" value="" style="shape=image;html=1;verticalAlign=top;verticalLabelPosition=bottom;labelBackgroundColor=#ffffff;imageAspect=0;aspect=fixed;image=https://cdn1.iconfinder.com/data/icons/unicons-line-vol-3/24/docker-128.png" parent="1" vertex="1">
          <mxGeometry y="350" width="57" height="57" as="geometry" />
        </mxCell>
        <mxCell id="F8IjO_xPWt07QARBXUnK-17" value="" style="edgeStyle=orthogonalEdgeStyle;rounded=0;orthogonalLoop=1;jettySize=auto;html=1;" parent="1" source="F8IjO_xPWt07QARBXUnK-16" target="F8IjO_xPWt07QARBXUnK-14" edge="1">
          <mxGeometry relative="1" as="geometry">
            <mxPoint x="30" y="240" as="targetPoint" />
          </mxGeometry>
        </mxCell>
        <mxCell id="F8IjO_xPWt07QARBXUnK-16" value="&lt;br&gt;&lt;br&gt;&lt;br&gt;&lt;br&gt;&lt;br&gt;&lt;br&gt;USUÁRIO" style="shape=actor;whiteSpace=wrap;html=1;" parent="1" vertex="1">
          <mxGeometry x="-30" y="44" width="40" height="60" as="geometry" />
        </mxCell>
        <mxCell id="F8IjO_xPWt07QARBXUnK-24" style="edgeStyle=orthogonalEdgeStyle;rounded=0;orthogonalLoop=1;jettySize=auto;html=1;entryX=1;entryY=0.5;entryDx=0;entryDy=0;exitX=0;exitY=0.25;exitDx=0;exitDy=0;" parent="1" target="F8IjO_xPWt07QARBXUnK-1" edge="1" source="F8IjO_xPWt07QARBXUnK-22">
          <mxGeometry relative="1" as="geometry">
            <mxPoint x="80" y="541" as="sourcePoint" />
          </mxGeometry>
        </mxCell>
        <mxCell id="k-CGjz52CG9muj9-yLX9-8" value="INFRAESTRUTURA" style="swimlane;whiteSpace=wrap;html=1;" parent="1" vertex="1">
          <mxGeometry x="70" y="44" width="392" height="540.5" as="geometry" />
        </mxCell>
        <mxCell id="F8IjO_xPWt07QARBXUnK-9" value="CONTROLLERS" style="rounded=1;whiteSpace=wrap;html=1;" parent="k-CGjz52CG9muj9-yLX9-8" vertex="1">
          <mxGeometry x="26" y="63" width="120" height="50" as="geometry" />
        </mxCell>
        <mxCell id="F8IjO_xPWt07QARBXUnK-25" value="JPAREPOSITORY" style="rounded=1;whiteSpace=wrap;html=1;" parent="k-CGjz52CG9muj9-yLX9-8" vertex="1">
          <mxGeometry x="70" y="390" width="120" height="50" as="geometry" />
        </mxCell>
        <mxCell id="F8IjO_xPWt07QARBXUnK-5" value="ENTITIES" style="rounded=1;whiteSpace=wrap;html=1;" parent="k-CGjz52CG9muj9-yLX9-8" vertex="1">
          <mxGeometry x="40" y="280.5" width="120" height="50" as="geometry" />
        </mxCell>
        <mxCell id="F8IjO_xPWt07QARBXUnK-7" style="edgeStyle=orthogonalEdgeStyle;rounded=0;orthogonalLoop=1;jettySize=auto;html=1;exitX=0.5;exitY=1;exitDx=0;exitDy=0;" parent="k-CGjz52CG9muj9-yLX9-8" source="F8IjO_xPWt07QARBXUnK-5" target="F8IjO_xPWt07QARBXUnK-5" edge="1">
          <mxGeometry relative="1" as="geometry" />
        </mxCell>
        <mxCell id="F8IjO_xPWt07QARBXUnK-22" value="FLYWAY" style="rounded=1;whiteSpace=wrap;html=1;verticalAlign=middle;labelBackgroundColor=#ffffff;" parent="k-CGjz52CG9muj9-yLX9-8" vertex="1">
          <mxGeometry x="26" y="480.5" width="120" height="42.5" as="geometry" />
        </mxCell>
        <mxCell id="k-CGjz52CG9muj9-yLX9-18" value="INPUT" style="text;html=1;align=center;verticalAlign=middle;resizable=0;points=[];autosize=1;strokeColor=none;fillColor=none;" parent="k-CGjz52CG9muj9-yLX9-8" vertex="1">
          <mxGeometry x="232" y="60.5" width="60" height="30" as="geometry" />
        </mxCell>
        <mxCell id="k-CGjz52CG9muj9-yLX9-23" value="OUTPUT" style="text;html=1;align=center;verticalAlign=middle;resizable=0;points=[];autosize=1;strokeColor=none;fillColor=none;" parent="k-CGjz52CG9muj9-yLX9-8" vertex="1">
          <mxGeometry x="302" y="90.5" width="70" height="30" as="geometry" />
        </mxCell>
        <mxCell id="k-CGjz52CG9muj9-yLX9-45" style="edgeStyle=orthogonalEdgeStyle;rounded=0;orthogonalLoop=1;jettySize=auto;html=1;" parent="k-CGjz52CG9muj9-yLX9-8" source="k-CGjz52CG9muj9-yLX9-25" edge="1">
          <mxGeometry relative="1" as="geometry">
            <mxPoint x="340" y="320" as="targetPoint" />
          </mxGeometry>
        </mxCell>
        <mxCell id="k-CGjz52CG9muj9-yLX9-25" value="MAPPER" style="rounded=1;whiteSpace=wrap;html=1;" parent="k-CGjz52CG9muj9-yLX9-8" vertex="1">
          <mxGeometry x="190" y="190.5" width="120" height="50" as="geometry" />
        </mxCell>
        <mxCell id="k-CGjz52CG9muj9-yLX9-28" style="edgeStyle=orthogonalEdgeStyle;rounded=0;orthogonalLoop=1;jettySize=auto;html=1;entryX=0.433;entryY=-0.02;entryDx=0;entryDy=0;entryPerimeter=0;" parent="k-CGjz52CG9muj9-yLX9-8" source="F8IjO_xPWt07QARBXUnK-5" target="F8IjO_xPWt07QARBXUnK-25" edge="1">
          <mxGeometry relative="1" as="geometry" />
        </mxCell>
        <mxCell id="k-CGjz52CG9muj9-yLX9-31" value="convert&lt;br&gt;entities" style="text;html=1;align=center;verticalAlign=middle;resizable=0;points=[];autosize=1;strokeColor=none;fillColor=none;" parent="k-CGjz52CG9muj9-yLX9-8" vertex="1">
          <mxGeometry x="270" y="260" width="60" height="40" as="geometry" />
        </mxCell>
        <mxCell id="k-CGjz52CG9muj9-yLX9-41" style="edgeStyle=orthogonalEdgeStyle;rounded=0;orthogonalLoop=1;jettySize=auto;html=1;entryX=1;entryY=0.5;entryDx=0;entryDy=0;" parent="k-CGjz52CG9muj9-yLX9-8" source="k-CGjz52CG9muj9-yLX9-39" target="F8IjO_xPWt07QARBXUnK-25" edge="1">
          <mxGeometry relative="1" as="geometry" />
        </mxCell>
        <mxCell id="k-CGjz52CG9muj9-yLX9-39" value="ADAPTER" style="rounded=1;whiteSpace=wrap;html=1;" parent="k-CGjz52CG9muj9-yLX9-8" vertex="1">
          <mxGeometry x="232" y="330.5" width="120" height="50" as="geometry" />
        </mxCell>
        <mxCell id="k-CGjz52CG9muj9-yLX9-46" style="edgeStyle=orthogonalEdgeStyle;rounded=0;orthogonalLoop=1;jettySize=auto;html=1;entryX=0.625;entryY=0.97;entryDx=0;entryDy=0;entryPerimeter=0;" parent="k-CGjz52CG9muj9-yLX9-8" source="k-CGjz52CG9muj9-yLX9-39" target="k-CGjz52CG9muj9-yLX9-25" edge="1">
          <mxGeometry relative="1" as="geometry">
            <Array as="points">
              <mxPoint x="260" y="286" />
              <mxPoint x="265" y="286" />
            </Array>
          </mxGeometry>
        </mxCell>
        <mxCell id="F8IjO_xPWt07QARBXUnK-30" value="Spring Boot Aplication" style="text;html=1;align=center;verticalAlign=middle;resizable=0;points=[];autosize=1;strokeColor=none;fillColor=none;" parent="k-CGjz52CG9muj9-yLX9-8" vertex="1">
          <mxGeometry x="50" y="30.5" width="140" height="30" as="geometry" />
        </mxCell>
        <mxCell id="F8IjO_xPWt07QARBXUnK-29" value="" style="shape=image;html=1;verticalAlign=top;verticalLabelPosition=bottom;labelBackgroundColor=#ffffff;imageAspect=0;aspect=fixed;image=https://cdn2.iconfinder.com/data/icons/boxicons-logos/24/bxl-spring-boot-128.png" parent="k-CGjz52CG9muj9-yLX9-8" vertex="1">
          <mxGeometry x="10" y="22.5" width="38" height="38" as="geometry" />
        </mxCell>
        <mxCell id="F8IjO_xPWt07QARBXUnK-18" value="JWT AUTH&amp;nbsp;" style="shape=image;html=1;verticalAlign=top;verticalLabelPosition=bottom;labelBackgroundColor=#ffffff;imageAspect=0;aspect=fixed;image=https://cdn4.iconfinder.com/data/icons/essentials-72/24/008_-_Lock-128.png" parent="k-CGjz52CG9muj9-yLX9-8" vertex="1">
          <mxGeometry x="50" y="190.5" width="29" height="29" as="geometry" />
        </mxCell>
        <mxCell id="k-CGjz52CG9muj9-yLX9-13" style="edgeStyle=orthogonalEdgeStyle;rounded=0;orthogonalLoop=1;jettySize=auto;html=1;" parent="k-CGjz52CG9muj9-yLX9-8" source="F8IjO_xPWt07QARBXUnK-18" target="F8IjO_xPWt07QARBXUnK-9" edge="1">
          <mxGeometry relative="1" as="geometry" />
        </mxCell>
        <mxCell id="k-CGjz52CG9muj9-yLX9-9" value="DOMAIN" style="swimlane;whiteSpace=wrap;html=1;" parent="1" vertex="1">
          <mxGeometry x="500" y="470" width="340" height="120" as="geometry" />
        </mxCell>
        <mxCell id="k-CGjz52CG9muj9-yLX9-14" value="MODELS" style="rounded=1;whiteSpace=wrap;html=1;" parent="k-CGjz52CG9muj9-yLX9-9" vertex="1">
          <mxGeometry x="180" y="50" width="120" height="50" as="geometry" />
        </mxCell>
        <mxCell id="k-CGjz52CG9muj9-yLX9-15" value="INTERFACES" style="rounded=1;whiteSpace=wrap;html=1;" parent="k-CGjz52CG9muj9-yLX9-9" vertex="1">
          <mxGeometry x="30" y="50" width="120" height="50" as="geometry" />
        </mxCell>
        <mxCell id="k-CGjz52CG9muj9-yLX9-12" value="APPLICATION" style="swimlane;whiteSpace=wrap;html=1;" parent="1" vertex="1">
          <mxGeometry x="490" y="40" width="450" height="400" as="geometry" />
        </mxCell>
        <mxCell id="k-CGjz52CG9muj9-yLX9-36" style="edgeStyle=orthogonalEdgeStyle;rounded=0;orthogonalLoop=1;jettySize=auto;html=1;entryX=1;entryY=0.5;entryDx=0;entryDy=0;" parent="k-CGjz52CG9muj9-yLX9-12" source="F8IjO_xPWt07QARBXUnK-2" target="k-CGjz52CG9muj9-yLX9-17" edge="1">
          <mxGeometry relative="1" as="geometry" />
        </mxCell>
        <mxCell id="G4ti0BxDxsE8cM9nVdZr-4" style="edgeStyle=orthogonalEdgeStyle;rounded=0;orthogonalLoop=1;jettySize=auto;html=1;exitX=1;exitY=1;exitDx=0;exitDy=0;entryX=0;entryY=0.5;entryDx=0;entryDy=0;" edge="1" parent="k-CGjz52CG9muj9-yLX9-12" source="F8IjO_xPWt07QARBXUnK-2" target="G4ti0BxDxsE8cM9nVdZr-1">
          <mxGeometry relative="1" as="geometry" />
        </mxCell>
        <mxCell id="F8IjO_xPWt07QARBXUnK-2" value="USE CASE" style="rounded=1;whiteSpace=wrap;html=1;" parent="k-CGjz52CG9muj9-yLX9-12" vertex="1">
          <mxGeometry x="120" y="40" width="106" height="50" as="geometry" />
        </mxCell>
        <mxCell id="k-CGjz52CG9muj9-yLX9-17" value="GATEWAY" style="rounded=1;whiteSpace=wrap;html=1;" parent="k-CGjz52CG9muj9-yLX9-12" vertex="1">
          <mxGeometry x="30" y="260" width="120" height="60" as="geometry" />
        </mxCell>
        <mxCell id="k-CGjz52CG9muj9-yLX9-44" value="EXCEPTIONS" style="rounded=1;whiteSpace=wrap;html=1;" parent="k-CGjz52CG9muj9-yLX9-12" vertex="1">
          <mxGeometry x="30" y="160" width="120" height="60" as="geometry" />
        </mxCell>
        <mxCell id="k-CGjz52CG9muj9-yLX9-52" style="edgeStyle=orthogonalEdgeStyle;rounded=0;orthogonalLoop=1;jettySize=auto;html=1;exitX=0.25;exitY=1;exitDx=0;exitDy=0;entryX=0.567;entryY=-0.05;entryDx=0;entryDy=0;entryPerimeter=0;dashed=1;dashPattern=8 8;" parent="k-CGjz52CG9muj9-yLX9-12" source="F8IjO_xPWt07QARBXUnK-2" target="k-CGjz52CG9muj9-yLX9-44" edge="1">
          <mxGeometry relative="1" as="geometry" />
        </mxCell>
        <mxCell id="G4ti0BxDxsE8cM9nVdZr-3" style="edgeStyle=orthogonalEdgeStyle;rounded=0;orthogonalLoop=1;jettySize=auto;html=1;entryX=1;entryY=0.75;entryDx=0;entryDy=0;" edge="1" parent="k-CGjz52CG9muj9-yLX9-12" source="G4ti0BxDxsE8cM9nVdZr-1" target="F8IjO_xPWt07QARBXUnK-2">
          <mxGeometry relative="1" as="geometry">
            <Array as="points">
              <mxPoint x="300" y="78" />
            </Array>
          </mxGeometry>
        </mxCell>
        <mxCell id="G4ti0BxDxsE8cM9nVdZr-1" value="MAPPER" style="rounded=1;whiteSpace=wrap;html=1;" vertex="1" parent="k-CGjz52CG9muj9-yLX9-12">
          <mxGeometry x="250" y="110" width="120" height="50" as="geometry" />
        </mxCell>
        <mxCell id="G4ti0BxDxsE8cM9nVdZr-5" value="domain x IO" style="text;html=1;align=center;verticalAlign=middle;resizable=0;points=[];autosize=1;strokeColor=none;fillColor=none;" vertex="1" parent="k-CGjz52CG9muj9-yLX9-12">
          <mxGeometry x="220" y="80" width="90" height="30" as="geometry" />
        </mxCell>
        <mxCell id="k-CGjz52CG9muj9-yLX9-35" style="edgeStyle=orthogonalEdgeStyle;rounded=0;orthogonalLoop=1;jettySize=auto;html=1;entryX=1;entryY=0.5;entryDx=0;entryDy=0;" parent="k-CGjz52CG9muj9-yLX9-12" edge="1">
          <mxGeometry relative="1" as="geometry">
            <mxPoint x="226" y="50" as="targetPoint" />
            <Array as="points">
              <mxPoint x="420" y="490" />
              <mxPoint x="420" y="273" />
              <mxPoint x="421" y="50" />
            </Array>
            <mxPoint x="310" y="490.05882352941194" as="sourcePoint" />
          </mxGeometry>
        </mxCell>
        <mxCell id="G4ti0BxDxsE8cM9nVdZr-6" value="Text" style="edgeLabel;html=1;align=center;verticalAlign=middle;resizable=0;points=[];" vertex="1" connectable="0" parent="k-CGjz52CG9muj9-yLX9-35">
          <mxGeometry x="0.7559" y="-4" relative="1" as="geometry">
            <mxPoint as="offset" />
          </mxGeometry>
        </mxCell>
        <mxCell id="G4ti0BxDxsE8cM9nVdZr-7" value="retorna" style="edgeLabel;html=1;align=center;verticalAlign=middle;resizable=0;points=[];" vertex="1" connectable="0" parent="k-CGjz52CG9muj9-yLX9-35">
          <mxGeometry x="0.7591" relative="1" as="geometry">
            <mxPoint as="offset" />
          </mxGeometry>
        </mxCell>
        <mxCell id="k-CGjz52CG9muj9-yLX9-16" style="edgeStyle=orthogonalEdgeStyle;rounded=0;orthogonalLoop=1;jettySize=auto;html=1;entryX=0;entryY=0.5;entryDx=0;entryDy=0;" parent="1" source="F8IjO_xPWt07QARBXUnK-9" target="F8IjO_xPWt07QARBXUnK-2" edge="1">
          <mxGeometry relative="1" as="geometry">
            <Array as="points">
              <mxPoint x="590" y="110" />
              <mxPoint x="590" y="105" />
            </Array>
          </mxGeometry>
        </mxCell>
        <mxCell id="k-CGjz52CG9muj9-yLX9-20" style="edgeStyle=orthogonalEdgeStyle;rounded=0;orthogonalLoop=1;jettySize=auto;html=1;" parent="1" source="k-CGjz52CG9muj9-yLX9-15" target="k-CGjz52CG9muj9-yLX9-17" edge="1">
          <mxGeometry relative="1" as="geometry" />
        </mxCell>
        <mxCell id="k-CGjz52CG9muj9-yLX9-22" style="edgeStyle=orthogonalEdgeStyle;rounded=0;orthogonalLoop=1;jettySize=auto;html=1;entryX=1;entryY=0.75;entryDx=0;entryDy=0;exitX=0;exitY=1;exitDx=0;exitDy=0;" parent="1" source="F8IjO_xPWt07QARBXUnK-2" target="F8IjO_xPWt07QARBXUnK-9" edge="1">
          <mxGeometry relative="1" as="geometry">
            <Array as="points">
              <mxPoint x="610" y="140" />
              <mxPoint x="230" y="140" />
              <mxPoint x="230" y="145" />
            </Array>
          </mxGeometry>
        </mxCell>
        <mxCell id="k-CGjz52CG9muj9-yLX9-27" style="edgeStyle=orthogonalEdgeStyle;rounded=0;orthogonalLoop=1;jettySize=auto;html=1;" parent="1" source="F8IjO_xPWt07QARBXUnK-25" target="F8IjO_xPWt07QARBXUnK-1" edge="1">
          <mxGeometry relative="1" as="geometry">
            <Array as="points">
              <mxPoint x="200" y="420" />
              <mxPoint x="70" y="420" />
              <mxPoint x="70" y="414" />
            </Array>
          </mxGeometry>
        </mxCell>
        <mxCell id="k-CGjz52CG9muj9-yLX9-42" style="edgeStyle=orthogonalEdgeStyle;rounded=0;orthogonalLoop=1;jettySize=auto;html=1;entryX=1;entryY=0.5;entryDx=0;entryDy=0;exitX=0;exitY=0.5;exitDx=0;exitDy=0;" parent="1" source="k-CGjz52CG9muj9-yLX9-17" target="k-CGjz52CG9muj9-yLX9-39" edge="1">
          <mxGeometry relative="1" as="geometry">
            <mxPoint x="430" y="400" as="targetPoint" />
            <Array as="points">
              <mxPoint x="480" y="330" />
              <mxPoint x="480" y="396" />
            </Array>
          </mxGeometry>
        </mxCell>
        <mxCell id="k-CGjz52CG9muj9-yLX9-43" value="PRESENTERS" style="rounded=1;whiteSpace=wrap;html=1;" parent="1" vertex="1">
          <mxGeometry x="740" y="290" width="120" height="60" as="geometry" />
        </mxCell>
        <mxCell id="k-CGjz52CG9muj9-yLX9-47" style="edgeStyle=orthogonalEdgeStyle;rounded=0;orthogonalLoop=1;jettySize=auto;html=1;exitX=1;exitY=0;exitDx=0;exitDy=0;" parent="1" source="k-CGjz52CG9muj9-yLX9-14" target="k-CGjz52CG9muj9-yLX9-43" edge="1">
          <mxGeometry relative="1" as="geometry" />
        </mxCell>
        <mxCell id="k-CGjz52CG9muj9-yLX9-48" style="edgeStyle=orthogonalEdgeStyle;rounded=0;orthogonalLoop=1;jettySize=auto;html=1;entryX=0.84;entryY=1.04;entryDx=0;entryDy=0;entryPerimeter=0;" parent="1" source="k-CGjz52CG9muj9-yLX9-43" target="F8IjO_xPWt07QARBXUnK-2" edge="1">
          <mxGeometry relative="1" as="geometry">
            <Array as="points">
              <mxPoint x="800" y="270" />
              <mxPoint x="699" y="270" />
            </Array>
          </mxGeometry>
        </mxCell>
        <mxCell id="G4ti0BxDxsE8cM9nVdZr-8" value="retorna" style="edgeLabel;html=1;align=center;verticalAlign=middle;resizable=0;points=[];" vertex="1" connectable="0" parent="k-CGjz52CG9muj9-yLX9-48">
          <mxGeometry x="-0.2631" y="-3" relative="1" as="geometry">
            <mxPoint as="offset" />
          </mxGeometry>
        </mxCell>
        <mxCell id="k-CGjz52CG9muj9-yLX9-50" style="edgeStyle=orthogonalEdgeStyle;rounded=0;orthogonalLoop=1;jettySize=auto;html=1;entryX=1;entryY=1;entryDx=0;entryDy=0;dashed=1;dashPattern=8 8;" parent="1" source="k-CGjz52CG9muj9-yLX9-44" target="F8IjO_xPWt07QARBXUnK-9" edge="1">
          <mxGeometry relative="1" as="geometry">
            <Array as="points">
              <mxPoint x="190" y="210" />
              <mxPoint x="190" y="157" />
            </Array>
          </mxGeometry>
        </mxCell>
        <mxCell id="G4ti0BxDxsE8cM9nVdZr-9" value="handler" style="edgeLabel;html=1;align=center;verticalAlign=middle;resizable=0;points=[];" vertex="1" connectable="0" parent="k-CGjz52CG9muj9-yLX9-50">
          <mxGeometry x="0.1233" y="-3" relative="1" as="geometry">
            <mxPoint as="offset" />
          </mxGeometry>
        </mxCell>
      </root>
    </mxGraphModel>
  </diagram>
</mxfile>
